HIERARCHY
ROOT Hips
{
	OFFSET 0.000000 0.000000 0.000000
	CHANNELS 6 Xposition Yposition Zposition Xrotation Yrotation Zrotation
	JOINT LeftUpLeg_virtual
	{
		OFFSET 0.000000 0.000000 0.000000
		CHANNELS 3 Xrotation Yrotation Zrotation
		JOINT LeftUpLeg
		{
			OFFSET 15.427100 -6.655098 0.678600
			CHANNELS 3 Xrotation Yrotation Zrotation
			JOINT LeftLeg
			{
				OFFSET 4.081073 -39.591068 13.024000
				CHANNELS 3 Xrotation Yrotation Zrotation
				JOINT LeftFoot
				{
					OFFSET -4.081074 -37.707932 -15.979700
					CHANNELS 3 Xrotation Yrotation Zrotation
					JOINT LeftToeBase
					{
						OFFSET 5.346399 -15.068900 20.645000
						CHANNELS 3 Xrotation Yrotation Zrotation
						JOINT LeftToe_End
						{
							OFFSET 2.754700 0.931300 11.300900
							CHANNELS 3 Xrotation Yrotation Zrotation
							End Site
							{
								OFFSET 0 0 0
							}
						}
					}
				}
			}
		}
	}
	JOINT RightUpLeg_virtual
	{
		OFFSET 0.000000 0.000000 0.000000
		CHANNELS 3 Xrotation Yrotation Zrotation
		JOINT RightUpLeg
		{
			OFFSET -15.569500 -6.655098 0.678600
			CHANNELS 3 Xrotation Yrotation Zrotation
			JOINT RightLeg
			{
				OFFSET -4.081825 -39.591045 13.023800
				CHANNELS 3 Xrotation Yrotation Zrotation
				JOINT RightFoot
				{
					OFFSET 4.081824 -37.707954 -15.979600
					CHANNELS 3 Xrotation Yrotation Zrotation
					JOINT RightToeBase
					{
						OFFSET -5.346400 -15.068900 20.645000
						CHANNELS 3 Xrotation Yrotation Zrotation
						JOINT RightToe_End
						{
							OFFSET -2.754700 0.931300 11.300900
							CHANNELS 3 Xrotation Yrotation Zrotation
							End Site
							{
								OFFSET 0 0 0
							}
						}
					}
				}
			}
		}
	}
	JOINT Spine_virtual
	{
		OFFSET 0.000000 0.000000 0.000000
		CHANNELS 3 Xrotation Yrotation Zrotation
		JOINT Spine
		{
			OFFSET -0.279200 12.230698 -2.892100
			CHANNELS 3 Xrotation Yrotation Zrotation
			JOINT Spine1
			{
				OFFSET -0.232667 10.192268 -1.242267
				CHANNELS 3 Xrotation Yrotation Zrotation
				JOINT Spine1_split
				{
					OFFSET -0.232667 10.192268 -1.242267
					CHANNELS 3 Xrotation Yrotation Zrotation
					JOINT Spine2
					{
						OFFSET -0.232667 10.192268 -1.242267
						CHANNELS 3 Xrotation Yrotation Zrotation
						JOINT Neck_virtual
						{
							OFFSET 0.000000 0.000000 0.000000
							CHANNELS 3 Xrotation Yrotation Zrotation
							JOINT Neck
							{
								OFFSET -0.418800 17.814194 8.416900
								CHANNELS 3 Xrotation Yrotation Zrotation
								JOINT Head
								{
									OFFSET 0.000000 7.031097 3.806800
									CHANNELS 3 Xrotation Yrotation Zrotation
									JOINT HeadTop_End
									{
										OFFSET 0.000000 24.646606 12.978600
										CHANNELS 3 Xrotation Yrotation Zrotation
										End Site
										{
											OFFSET 0 0 0
										}
									}
								}
							}
						}
						JOINT LeftShoulder_virtual
						{
							OFFSET 0.000000 0.000000 0.000000
							CHANNELS 3 Xrotation Yrotation Zrotation
							JOINT LeftShoulder
							{
								OFFSET 8.476499 7.247704 -3.868750
								CHANNELS 3 Xrotation Yrotation Zrotation
								JOINT LeftShoulder_split
								{
									OFFSET 8.476499 7.247704 -3.868750
									CHANNELS 3 Xrotation Yrotation Zrotation
									JOINT LeftArm
									{
										OFFSET 9.308998 -2.777710 0.208600
										CHANNELS 3 Xrotation Yrotation Zrotation
										JOINT LeftForeArm
										{
											OFFSET 29.972298 0.000000 0.000000
											CHANNELS 3 Xrotation Yrotation Zrotation
											JOINT LeftHand
											{
												OFFSET 26.026505 0.000000 0.000000
												CHANNELS 3 Xrotation Yrotation Zrotation
												End Site
												{
													OFFSET 0 0 0
												}
											}
										}
									}
								}
							}
						}
						JOINT RightShoulder_virtual
						{
							OFFSET 0.000000 0.000000 0.000000
							CHANNELS 3 Xrotation Yrotation Zrotation
							JOINT RightShoulder
							{
								OFFSET -7.570500 7.247704 -3.868750
								CHANNELS 3 Xrotation Yrotation Zrotation
								JOINT RightShoulder_split
								{
									OFFSET -7.570500 7.247704 -3.868750
									CHANNELS 3 Xrotation Yrotation Zrotation
									JOINT RightArm
									{
										OFFSET -9.308998 -2.777710 0.208500
										CHANNELS 3 Xrotation Yrotation Zrotation
										JOINT RightForeArm
										{
											OFFSET -29.972300 0.000000 0.000000
											CHANNELS 3 Xrotation Yrotation Zrotation
											JOINT RightHand
											{
												OFFSET -26.026505 0.000000 0.000000
												CHANNELS 3 Xrotation Yrotation Zrotation
												End Site
												{
													OFFSET 0 0 0
												}
											}
										}
									}
								}
							}
						}
					}
				}
			}
		}
	}
}
MOTION
Frames: 8
Frame Time: 0.03333333
0.545303 79.660217 -7.215206 0.000000 0.000000 0.000000 6.550064 -56.296577 10.033651 -31.090113 14.529059 25.803910 34.265573 -13.358869 -4.088299 -5.340503 -0.793021 -10.363893 0.463264 -1.092878 -2.536638 0.000000 0.000000 0.000000 5.503771 -54.345312 9.286212 -29.516734 -4.713400 -29.605513 42.478261 16.373084 -3.610473 -17.347917 -7.333800 25.647164 5.318221 9.502595 -14.190702 0.000000 0.000000 0.000000 3.263757 -51.823603 8.297144 3.694086 2.439552 -2.887456 12.022671 -3.723943 -6.172275 -0.192145 -0.356623 0.078564 0.000000 0.000000 0.000000 13.924203 -1.705401 -5.407015 -17.712851 13.644140 0.614495 -10.146839 43.806784 12.697573 0.000000 0.000000 0.000000 12.346725 -2.825193 -7.367407 1.042072 -5.351581 -7.493833 -2.334616 -2.688916 -1.782226 -32.084155 -1.174251 -22.917187 2.359432 -21.623062 12.803128 0.000000 0.000000 0.000000 15.602010 -1.996934 -6.349649 -11.560087 27.183933 14.382854 9.430723 1.929978 -0.530618 -66.571067 -32.678541 2.772681 -103.134087 63.600905 103.947515 0.000000 0.000000 0.000000 
0.523478 79.536499 -6.967052 0.000000 0.000000 0.000000 6.563234 -55.635702 9.732487 -31.596243 14.550740 26.141231 34.640623 -13.468002 -4.119314 -4.929968 -0.738488 -10.832731 -0.127361 -1.131123 -2.240978 0.000000 0.000000 0.000000 5.631581 -53.825036 9.195988 -29.299995 -4.401498 -29.574897 42.008740 16.402418 -3.796071 -16.712271 -7.024307 26.652119 4.760836 9.555599 -14.273109 0.000000 0.000000 0.000000 3.266666 -51.343485 7.975214 3.570601 2.596453 -2.633675 11.717781 -3.934116 -6.212586 -0.207382 -0.447583 0.085862 0.000000 0.000000 0.000000 13.726150 -1.819462 -5.396909 -16.899363 13.576404 0.564549 -11.006248 43.956710 13.213613 0.000000 0.000000 0.000000 12.221504 -3.008086 -7.259500 0.987929 -4.699393 -8.072928 -0.931589 -2.765699 -1.511438 -31.476315 -1.905008 -23.467811 2.279051 -21.882760 12.515891 0.000000 0.000000 0.000000 15.268910 -2.224563 -6.235849 -11.170860 26.117221 14.239435 10.725021 2.068618 -0.248519 -64.908244 -33.522012 3.580279 -103.637916 63.505084 104.282263 0.000000 0.000000 0.000000 
0.468369 79.051308 -6.685947 0.000000 0.000000 0.000000 6.573010 -54.592479 9.512749 -32.193697 14.141973 26.353940 35.328645 -13.452286 -4.274748 -5.152624 -0.246183 -10.901707 -0.534757 -1.099116 -2.188862 0.000000 0.000000 0.000000 5.886681 -52.744797 9.180202 -29.230474 -4.081579 -29.609703 42.270354 16.406287 -4.049353 -16.290735 -7.083664 28.154212 3.901933 9.658511 -14.164182 0.000000 0.000000 0.000000 3.143777 -50.116434 7.600433 3.337206 2.809869 -2.226107 11.283891 -4.217003 -6.026396 -0.134015 -0.547129 0.045561 0.000000 0.000000 0.000000 13.522163 -2.000168 -5.217044 -15.811024 12.689097 0.513599 -12.325315 43.751275 13.591596 0.000000 0.000000 0.000000 11.978433 -3.294306 -6.939241 0.862179 -4.361877 -9.116957 0.269483 -2.519759 -1.407414 -28.963697 -3.267529 -23.258251 1.562790 -22.620545 11.322285 0.000000 0.000000 0.000000 14.843400 -2.543080 -5.883434 -10.639085 24.038627 14.196161 10.268884 3.150170 -0.218116 -61.372556 -34.169510 5.397870 -99.474383 64.209789 100.107337 0.000000 0.000000 0.000000 
0.427870 78.191345 -6.415932 0.000000 0.000000 0.000000 6.601156 -53.460710 9.449975 -32.844464 13.276338 26.281089 36.441228 -13.203998 -4.526744 -6.306730 0.682118 -10.466444 0.047155 -0.996566 -2.525243 0.000000 0.000000 0.000000 6.138787 -51.496857 9.283212 -29.320855 -3.713194 -29.763823 43.468297 16.291275 -4.428830 -16.811990 -7.732700 29.563801 3.575881 9.713269 -13.958869 0.000000 0.000000 0.000000 3.021839 -48.250946 7.376381 3.014310 3.062020 -1.689478 10.732853 -4.539496 -5.661435 -0.055773 -0.559593 -0.039369 0.000000 0.000000 0.000000 13.268944 -2.238281 -4.923384 -14.632692 11.007844 0.425950 -13.506090 43.229473 13.470691 0.000000 0.000000 0.000000 11.656782 -3.661298 -6.488142 0.644074 -4.384925 -10.573178 1.158597 -1.971464 -1.228382 -25.179434 -4.853752 -22.247557 0.335956 -23.536041 9.427210 0.000000 0.000000 0.000000 14.372504 -2.914598 -5.383789 -9.982171 21.169324 14.147962 8.790357 4.820272 -0.538749 -56.328570 -34.657934 8.045582 -89.583115 65.080781 90.274269 0.000000 0.000000 0.000000 
0.458857 76.864227 -6.076397 0.000000 0.000000 0.000000 6.647640 -52.396806 9.682171 -33.825931 11.764681 25.938335 38.181953 -13.098226 -4.751822 -7.922367 1.817591 -10.523243 1.880893 -0.817186 -3.148018 0.000000 0.000000 0.000000 6.195555 -50.315521 9.520427 -29.699414 -3.184737 -30.180014 45.985502 15.912259 -4.964955 -18.528218 -9.171843 30.442379 4.418633 9.653561 -13.704555 0.000000 0.000000 0.000000 3.050257 -46.059435 7.491970 2.627994 3.336090 -1.093377 10.085602 -4.874108 -5.205624 0.031531 -0.503826 -0.136468 0.000000 0.000000 0.000000 12.972161 -2.518233 -4.604916 -13.539184 8.685351 0.212355 -13.822659 42.388557 12.529161 0.000000 0.000000 0.000000 11.278610 -4.094677 -6.003675 0.319342 -4.782983 -12.313335 1.612687 -1.078136 -0.907264 -20.854249 -6.054642 -20.837133 -1.062322 -24.207213 7.148523 0.000000 0.000000 0.000000 13.903374 -3.305416 -4.837486 -9.249234 17.804049 13.952878 6.443098 6.365833 -0.311586 -50.433239 -34.715048 11.208415 -73.267719 64.665110 73.974521 0.000000 0.000000 0.000000 
0.543910 75.092659 -5.844334 0.000000 0.000000 0.000000 6.684348 -51.258883 10.267532 -35.211319 9.583649 25.223055 40.591329 -13.179925 -4.899860 -9.821710 2.943128 -11.161044 4.067993 -0.618139 -3.624060 0.000000 0.000000 0.000000 5.909463 -49.225201 9.951761 -30.357401 -2.363365 -30.982667 49.998279 15.309118 -5.668625 -21.099131 -11.265162 30.998612 6.086694 9.535479 -13.430194 0.000000 0.000000 0.000000 3.076424 -43.805572 7.909048 2.260520 3.623584 -0.526441 9.342830 -5.192533 -4.741475 0.119055 -0.451808 -0.214338 0.000000 0.000000 0.000000 12.643169 -2.813996 -4.325879 -12.776064 5.945521 -0.142796 -12.795328 41.270489 10.638708 0.000000 0.000000 0.000000 10.849154 -4.554159 -5.566704 -0.122409 -5.467998 -14.260273 1.791120 -0.134937 -0.802792 -16.743879 -6.555277 -19.751908 -2.205978 -24.563438 4.878704 0.000000 0.000000 0.000000 13.418818 -3.693009 -4.321223 -8.553123 14.259418 13.582679 3.330768 6.602989 0.120312 -44.845458 -34.147968 14.275865 -54.494285 61.073059 55.035619 0.000000 0.000000 0.000000 
0.677552 72.865219 -5.745483 0.000000 0.000000 0.000000 6.497695 -49.870971 11.028753 -36.955128 6.843278 23.974814 43.602999 -13.284504 -4.927976 -11.684534 3.917548 -12.028884 5.625357 -0.391274 -3.745328 0.000000 0.000000 0.000000 5.257535 -48.166579 10.550379 -31.129260 -0.969884 -32.260619 55.213873 14.690748 -6.529392 -23.920574 -13.680649 32.048033 7.157446 9.508936 -13.177840 0.000000 0.000000 0.000000 2.980963 -41.522568 8.514574 2.016052 3.903976 -0.077092 8.546499 -5.477967 -4.285052 0.146296 -0.368745 -0.222734 0.000000 0.000000 0.000000 12.286908 -3.100588 -4.060885 -12.551917 3.055664 -0.663501 -10.385882 39.700041 7.958351 0.000000 0.000000 0.000000 10.353447 -4.959474 -5.194013 -0.678819 -6.515110 -16.280888 1.550944 0.708312 -0.974543 -13.373939 -6.377037 -19.580639 -2.708767 -24.953104 2.911355 0.000000 0.000000 0.000000 12.906834 -4.016979 -3.852087 -8.010259 11.113860 13.242880 0.378087 5.750367 0.687207 -40.805118 -32.784437 16.675714 -39.300406 53.797258 39.300734 0.000000 0.000000 0.000000 
0.834251 70.277000 -5.735752 0.000000 0.000000 0.000000 5.967211 -48.226941 11.725557 -39.330692 3.529139 22.261513 47.224427 -13.427390 -4.689677 -12.719422 4.587095 -13.081165 6.091898 -0.130139 -3.656975 0.000000 0.000000 0.000000 4.483421 -46.903233 11.188274 -31.550467 0.906770 -33.816601 60.938545 14.149977 -7.573656 -26.722492 -16.261507 33.836576 6.884130 9.651538 -12.967632 0.000000 0.000000 0.000000 2.639347 -39.281190 9.141007 1.975956 4.207103 0.223915 7.754174 -5.724383 -3.760519 0.128536 -0.326693 -0.107307 0.000000 0.000000 0.000000 11.896550 -3.314770 -3.740759 -13.051949 0.331695 -1.341037 -6.842162 37.652531 4.850665 0.000000 0.000000 0.000000 9.811862 -5.290603 -4.796698 -1.336386 -7.961541 -18.108184 0.761957 1.523536 -1.713455 -10.951865 -5.660572 -20.579433 -2.392836 -25.789365 1.391035 0.000000 0.000000 0.000000 12.332232 -4.277574 -3.380901 -7.723843 8.788320 13.276418 -1.990729 4.877751 1.239024 -39.479764 -30.368264 17.844064 -29.596265 44.359104 28.544074 0.000000 0.000000 0.000000 
